<?xml version="1.0" encoding="UTF-8"?><svg id="Layer_2" xmlns="http://www.w3.org/2000/svg" xmlns:xlink="http://www.w3.org/1999/xlink" viewBox="0 0 392.06 392"><defs><style>.cls-1{fill:url(#linear-gradient);}.cls-1,.cls-2,.cls-3{stroke-width:0px;}.cls-2{fill:#606060;}.cls-3{fill:#a0a0a0;}</style><linearGradient id="linear-gradient" x1="363.79" y1="163.78" x2="231.01" y2="37.48" gradientUnits="userSpaceOnUse"><stop offset="0" stop-color="#606060"/><stop offset="1" stop-color="#a0a0a0"/></linearGradient></defs><g id="Layer_1-2"><path class="cls-2" d="m222.31,196c44.92,0,89.83,0,134.75,0,21.23,0,34.97,13.71,34.98,34.95.02,42.19.02,84.38,0,126.57,0,20.58-13.98,34.46-34.66,34.46-90.11.01-180.21.01-270.32,0-20.94,0-34.76-13.84-34.77-34.76-.01-41.78-.02-83.57,0-125.35,0-22.45,13.35-35.88,35.68-35.89,44.78-.01,89.56,0,134.34,0Zm-.16,13.07c-45.18,0-90.37,0-135.55,0-13.01,0-21.23,8.14-21.24,21.05-.01,42.59,0,85.19.01,127.78,0,1.76.04,3.56.41,5.27,2.12,9.76,9.89,15.75,20.43,15.75,90.23.02,180.46.01,270.69.01,14.31,0,22.07-7.84,22.07-22.29,0-41.91,0-83.83,0-125.74,0-13.85-7.91-21.83-21.68-21.84-45.05,0-90.09,0-135.14,0Z"/><path class="cls-3" d="m.02,169.63c0-44.91,0-89.82,0-134.73C.03,13.73,13.81.01,35.06,0c42.06,0,84.11,0,126.17,0,20.96,0,34.79,13.78,34.8,34.71.02,46.41,0,92.81,0,139.22,0,1.09.11,2.2-.08,3.26-.66,3.51-2.8,5.64-6.41,5.66-3.61.02-5.81-2.07-6.46-5.59-.25-1.32-.1-2.71-.1-4.07,0-46.14,0-92.27,0-138.41,0-13.75-7.99-21.72-21.8-21.72-42.06,0-84.11,0-126.17,0-14.06,0-21.91,7.9-21.91,22.03,0,90.09,0,180.19,0,270.28,0,12.36,7.14,20.19,19.39,21.28,4.22.38,6.82,2.96,6.72,6.7-.1,3.84-3.07,6.36-7.47,6.34-17.23-.08-31.62-14.89-31.68-32.89-.1-29.67-.03-59.34-.03-89,0-16.06,0-32.12,0-48.18Z"/><path class="cls-1" d="m240.39,39.85c62.75,13.25,99.71,50.78,112.01,113.31,2.55-4.03,4.98-7.9,7.44-11.76,2.76-4.31,6.44-5.51,9.86-3.27,3.32,2.18,3.83,5.86,1.26,10.02-5.21,8.44-10.44,16.86-15.72,25.26-2.98,4.75-5.85,5.76-10.55,2.95-9.21-5.5-18.26-11.26-27.24-17.11-3.13-2.04-3.67-5.65-1.87-8.65,1.8-3.01,5.56-4.07,8.91-2.15,4.69,2.68,9.24,5.63,14.58,8.92-2.94-25.41-12.5-47.08-29.01-65.57-19.38-21.71-43.6-34.48-73.74-38.69,4,5.16,7.32,9.38,10.56,13.65,2.61,3.45,2.48,7.06-.21,9.52-2.72,2.47-6.95,2.31-9.43-.76-6.92-8.56-13.74-17.21-20.46-25.94-2.31-3-1.51-6.91,1.65-9.37,8.25-6.44,16.53-12.85,24.84-19.22,3.55-2.72,7.41-2.41,9.76.6,2.34,2.99,1.71,6.89-1.7,9.66-3.54,2.88-7.18,5.64-10.93,8.59Z"/><path class="cls-3" d="m98.27,39.2c-6.25,0-12.49.04-18.74-.01-4.74-.04-7.66-2.62-7.62-6.59.04-3.96,2.96-6.45,7.75-6.46,12.22-.03,24.44-.03,36.66,0,4.83.01,7.74,2.44,7.82,6.38.08,4.1-2.89,6.63-7.95,6.66-5.97.04-11.95,0-17.92.01Z"/><path class="cls-2" d="m365.92,293.94c0,6.25.04,12.49-.02,18.74-.05,4.51-2.54,7.33-6.36,7.43-3.97.11-6.66-2.82-6.68-7.52-.05-12.36-.04-24.71-.01-37.07.01-4.74,2.6-7.67,6.57-7.64,3.97.03,6.45,2.93,6.49,7.73.05,6.11.01,12.22,0,18.33Z"/></g></svg>